inDegrees=no
num_controls=7
num_derivatives=13
num_iterations=80
num_multipliers=7
num_parameters=0
num_slacks=7
num_states=26
objective=0.332465
objective_accelerations=0.039015
objective_balance=0.001472
objective_effort=0.028505
objective_height=0.261988
objective_ligament=0.001484
solver_duration=858.037845
status=Solve_Succeeded
success=true
DataType=double
version=3
OpenSimVersion=4.5
endheader
time	/jointset/ground_pelvis/pelvis_tilt/value	/jointset/ground_pelvis/pelvis_tx/value	/jointset/ground_pelvis/pelvis_ty/value	/jointset/hip_r/hip_flexion_r/value	/jointset/hip_r/hip_adduction_r/value	/jointset/hip_r/hip_rotation_r/value	/jointset/back/lumbar_extension/value	/jointset/patellofemoral_r/patellar_flexion_r/value	/jointset/knee_r/knee_flexion_r/value	/jointset/knee_r/knee_adduction_r/value	/jointset/knee_r/knee_rotation_r/value	/jointset/ankle_r/ankle_angle_r/value	/jointset/subtalar_r/subtalar_angle_r/value	/jointset/ground_pelvis/pelvis_tilt/speed	/jointset/ground_pelvis/pelvis_tx/speed	/jointset/ground_pelvis/pelvis_ty/speed	/jointset/hip_r/hip_flexion_r/speed	/jointset/hip_r/hip_adduction_r/speed	/jointset/hip_r/hip_rotation_r/speed	/jointset/back/lumbar_extension/speed	/jointset/patellofemoral_r/patellar_flexion_r/speed	/jointset/knee_r/knee_flexion_r/speed	/jointset/knee_r/knee_adduction_r/speed	/jointset/knee_r/knee_rotation_r/speed	/jointset/ankle_r/ankle_angle_r/speed	/jointset/subtalar_r/subtalar_angle_r/speed	/forceset/tau_hip_flexion_r	/forceset/tau_hip_adduction_r	/forceset/tau_hip_rotation_r	/forceset/tau_knee_flexion_r	/forceset/tau_ankle_angle_r	/forceset/tau_subtalar_angle_r	/forceset/tau_lumbar_extension	lambda_cid13_p0	lambda_cid14_p0	lambda_cid14_p1	lambda_cid14_p2	lambda_cid14_p3	lambda_cid14_p4	lambda_cid14_p5	/jointset/ground_pelvis/pelvis_tilt/accel	/jointset/ground_pelvis/pelvis_tx/accel	/jointset/ground_pelvis/pelvis_ty/accel	/jointset/hip_r/hip_flexion_r/accel	/jointset/hip_r/hip_adduction_r/accel	/jointset/hip_r/hip_rotation_r/accel	/jointset/back/lumbar_extension/accel	/jointset/patellofemoral_r/patellar_flexion_r/accel	/jointset/knee_r/knee_flexion_r/accel	/jointset/knee_r/knee_adduction_r/accel	/jointset/knee_r/knee_rotation_r/accel	/jointset/ankle_r/ankle_angle_r/accel	/jointset/subtalar_r/subtalar_angle_r/accel	gamma_cid13_p0	gamma_cid14_p0	gamma_cid14_p1	gamma_cid14_p2	gamma_cid14_p3	gamma_cid14_p4	gamma_cid14_p5
1.5	-0.1225513746334304	0.03125759384869489	0.8060601652247465	0.8751425316102518	-0.2274125782090783	-0.1151562316587912	-0.630096322720748	0.9719916693632891	0.9719916693632878	-0.03988609217999115	0.1743655488793404	0.3106053650212244	0.1379005688087701	0.5437452506409768	0.2361557382867979	0.5521059238848161	-2.182994588747869	0.003467543543485632	-0.1918601290820351	0.7988186746315791	-2.043275103804406	-2.043275103804408	0.4942415425662536	0.002006453238943562	-0.5230929483204267	-0.2031440286703213	-0.1803960033063355	0.01431277776406627	0.01813099430566196	-0.2924285008973626	-6.457301408405424e-05	-0.004026962558873354	0.2248076958101768	-7.511089415818598	-42.00037182369958	-8.512324448894061	1.104485030616351	-3.11683308933177	-627.5215076189222	56.10682844162694	0.2429307333781969	0.6261442611874725	-0.5558162644836545	-1.130961300771414	-0.2477991201959178	-0.6452721554901717	1.875882985358048	-1.431898930570208	-1.431898930570205	0.4801157562186714	-0.06686263988414853	-0.7247099750517514	-0.4570976317378029	2.006841002506212e-07	1.683305379113767e-07	-1.098372148735811e-06	1.688756135256154e-06	1.369769261611427e-08	3.405995624229297e-07	-7.317066602868931e-07
1.51	-0.1171020970643813	0.0336502298225429	0.8115523893400255	0.8532578460833959	-0.2273915156426609	-0.1171067521452835	-0.6220156469997471	0.9514896081512468	0.9514896081512225	-0.03491736029697282	0.1743839160885749	0.3053385515456969	0.1358446948012097	0.5460290703699624	0.2423446213444189	0.5462260100999449	-2.193679445163754	0.0007231332115199123	-0.198236321993134	0.8172407735475419	-2.056883356483913	-2.056883356483913	0.4995152358449725	0.001669741355608648	-0.5301970165152026	-0.2080146635184809	-0.1730464867289153	0.01279084325860951	0.01824241751358305	-0.2880368953329565	0.0009751255138704745	-0.004706262093608623	0.2181469376374174	-8.523696282458374	-41.37597343256661	-8.528332200578575	0.9132168780714185	-3.019114300441627	-622.4944968479934	55.8916902056018	0.2089422745156905	0.6112454242085548	-0.6209425767467515	-0.9977681658889656	-0.2909101070791936	-0.6323331762423597	1.814018941571816	-1.287261828241241	-1.287261828241094	0.5523720770816262	-0.01640889409307107	-0.6922925124688253	-0.4996673825221979	2.025748891785362e-07	1.567334189611021e-07	-1.278720759761535e-06	1.568523219259292e-06	3.886700759459492e-08	3.458777961617163e-07	-8.863749586624169e-07
1.52	-0.1116324143616672	0.03610395164619846	0.8169824415892044	0.8312742079215999	-0.2273985268030387	-0.1191207426243538	-0.6137530211702151	0.9308590697340734	0.9308590697340576	-0.02989561628849701	0.1743990494926626	0.3000028899340658	0.1337405902509339	0.5478262773732208	0.2483729082483067	0.5396715506647568	-2.202785115735332	-0.002147201815732949	-0.204554127597135	0.8352086963377736	-2.068970544827438	-2.068970544827437	0.5048439676590188	0.001359692210872409	-0.5368625755411087	-0.2127901372133245	-0.1656969701515302	0.01126890875313844	0.01835384072154576	-0.2836452897685474	0.002014824041826967	-0.005385561628366218	0.2114861794646287	-9.596706745730373	-40.74787039242858	-8.537463469934035	0.7137384064268619	-2.948566409509501	-617.4223629846416	55.74561697359547	0.1456081882326281	0.5940250304409412	-0.6907253945470048	-0.8151241319100908	-0.2729840592533776	-0.6335946940706174	1.785047760211825	-1.127686063373992	-1.127686063373989	0.4911234632841979	-0.06153009216440888	-0.6370081412776922	-0.4380654010745541	1.979515113630686e-07	1.470187039139336e-07	-1.335368730417254e-06	1.475156070803318e-06	4.998858443834256e-08	3.458109308912629e-07	-9.557528105492712e-07
1.53	-0.1061472800423406	0.03861716267391099	0.8223436119777074	0.8092075154121463	-0.2274346461971939	-0.1211979842533036	-0.605312960658567	0.910115424121164	0.9101154241211304	-0.02482102328170917	0.174411013842779	0.2946030308831575	0.1315896771784918	0.5491150248439827	0.2542427504078123	0.5324552583605625	-2.210285520430506	-0.005087052381011129	-0.2109217538473288	0.8527219479582081	-2.079491410483944	-2.079491410483935	0.5100368231536617	0.001044937489255521	-0.5430153353244487	-0.2173520578129872	-0.1581784475476302	0.009397606549514617	0.01852204219171727	-0.2798238554271035	0.00371277133567357	-0.006165415789641739	0.2047248253049301	-10.68485972557684	-39.92986328029764	-8.571550561413295	0.5348421824566248	-3.05355173623615	-612.5891193709907	55.66047758950657	0.1076853775003783	0.5794906055869237	-0.7531040518920551	-0.6773020093508522	-0.3059255318988158	-0.6422001797709328	1.72224515793779	-0.9742477712781332	-0.9742477712770981	0.5275386034425499	-0.01445090492353546	-0.5902798246527604	-0.4592215163356192	1.864068313827572e-07	1.393040430138152e-07	-1.260584770679844e-06	1.410333800359539e-06	4.618443951393654e-08	3.400648979234922e-07	-9.34509563041915e-07
1.54	-0.1006518227781018	0.04118827748259438	0.8276294148624613	0.7870738581815321	-0.2275004520923481	-0.1233396728626132	-0.5967002113717187	0.8892745776607741	0.8892745776607556	-0.01969566731780583	0.1744202300971188	0.2891444702488576	0.129394351674668	0.5498908663548367	0.25995366444248	0.5245980499148628	-2.216178059966898	-0.008084502015633304	-0.2174435236686076	0.8697464513777962	-2.088410714320029	-2.088410714320013	0.5149965590838368	0.0008100730571047542	-0.5486028922194109	-0.2216726234895874	-0.1506599249437701	0.007526304345873102	0.01869024366193035	-0.2760024210856603	0.00541071862951963	-0.006945269950944685	0.1979634711452004	-11.77301165780509	-39.11235123432655	-8.604042314176114	0.3537701784779852	-3.169993588749489	-607.7612546729262	55.63858917293586	0.04302699625089213	0.5622394054734512	-0.8189086228480693	-0.4935511001539601	-0.2845038731222037	-0.6644234082876126	1.687298120042499	-0.807373699290015	-0.8073736992900186	0.4444995503906379	-0.04555203427120127	-0.5239675636020275	-0.3897944164619837	1.812036903944677e-07	1.313176656855156e-07	-1.283398851356984e-06	1.310295806094166e-06	5.382375422173969e-08	3.346221584036672e-07	-9.583914787792085e-07
